PathFileType	4	(X/Y/Z)	/Users/bjf5/Files/Research/NMSM Pipeline/Training Material/UF Subject 3/GaitTrial48_markers.trc
DataRate	CameraRate	NumFrames	NumMarkers	Units	OrigDataRate	OrigDataStartFrame	OrigNumFrames
100	100	5	33	m	100	40	6000
Frame#	Time	L_Midfoot_Superior			Neck			L_Toe			R_Toe			R_Heel			L_Heel			R_Elbow			R_Shoulder			L_Shank_Superior			L_Shoulder			R_Shank_Lateral			L_Patella			R_Midfoot_Lateral			R_Wrist			L_Shank_Inferior			L_Thigh_Inferior			L_Elbow			L_Wrist			L_Thigh_Superior			R_Midfoot_Superior			L_Thigh_Lateral			L_Shank_Lateral			R_Shank_Superior			Sternum			L_Midfoot_Lateral			R_Thigh_Superior			R_Thigh_Lateral			L_Asis			R_Shank_Inferior			R_Patella			R_Thigh_Inferior			R_Asis			Sacral
		X1	Y1	Z1	X2	Y2	Z2	X3	Y3	Z3	X4	Y4	Z4	X5	Y5	Z5	X6	Y6	Z6	X7	Y7	Z7	X8	Y8	Z8	X9	Y9	Z9	X10	Y10	Z10	X11	Y11	Z11	X12	Y12	Z12	X13	Y13	Z13	X14	Y14	Z14	X15	Y15	Z15	X16	Y16	Z16	X17	Y17	Z17	X18	Y18	Z18	X19	Y19	Z19	X20	Y20	Z20	X21	Y21	Z21	X22	Y22	Z22	X23	Y23	Z23	X24	Y24	Z24	X25	Y25	Z25	X26	Y26	Z26	X27	Y27	Z27	X28	Y28	Z28	X29	Y29	Z29	X30	Y30	Z30	X31	Y31	Z31	X32	Y32	Z32	X33	Y33	Z33

41	   0.400	    0.41423019400000	    0.12220945000000	   -0.73511163300000	    0.51815820300000	    1.46703198200000	   -0.53535858200000	    0.40003836100000	    0.05682382600000	   -0.83984497100000	    0.55071533200000	    0.03502642100000	   -0.65524523900000	    0.52213043200000	    0.05526763500000	   -0.36006192000000	    0.44994299300000	    0.10457279200000	   -0.55590411400000	    0.79069348100000	    1.07822045900000	   -0.61777758800000	    0.67419757100000	    1.42417260700000	   -0.60357025100000	    0.38876913500000	    0.42033020000000	   -0.78968798800000	    0.35849642900000	    1.43705639600000	   -0.59117669700000	    0.64799304200000	    0.35348065200000	   -0.48641268900000	    0.40001083400000	    0.53740838600000	   -0.85014202900000	    0.58518243400000	    0.03756178700000	   -0.44226434300000	    0.81321752900000	    0.90053149400000	   -0.80145080600000	    0.40791177400000	    0.27328591900000	   -0.73259875500000	    0.37741626000000	    0.67206652800000	   -0.81005023200000	    0.26191415400000	    1.10647888200000	   -0.50556814600000	    0.23582618700000	    0.86124371300000	   -0.58723272700000	    0.36657324200000	    0.78575659200000	   -0.75659893800000	    0.54579632600000	    0.09233599900000	   -0.53779834000000	    0.32655194100000	    0.67625787400000	   -0.70208599900000	    0.34346881100000	    0.38264801000000	   -0.68683837900000	    0.60294024700000	    0.38120687900000	   -0.57879583700000	    0.50642202800000	    1.37225744600000	   -0.68837793000000	    0.38367236300000	    0.08151087200000	   -0.62953137200000	    0.62341711400000	    0.71054205300000	   -0.67772479200000	    0.66893524200000	    0.66306890900000	   -0.58260101300000	    0.36730554200000	    0.96033587600000	   -0.64426879900000	    0.57226330600000	    0.21670669600000	   -0.52115637200000	    0.59659948700000	    0.48608169600000	   -0.63112115500000	    0.60543267800000	    0.59874670400000	   -0.65700567600000	    0.62382366900000	    0.97782586700000	   -0.65463171400000	    0.50408483900000	    0.99406890900000	   -0.47338250700000
42	   0.410	    0.41288534500000	    0.11971417200000	   -0.76344055200000	    0.51825647000000	    1.46643823200000	   -0.53539215100000	    0.39872360200000	    0.06169944800000	   -0.87242382800000	    0.55109338400000	    0.03470467000000	   -0.64158386200000	    0.52204840100000	    0.05676283600000	   -0.34638348400000	    0.44817038000000	    0.09003217300000	   -0.58571020500000	    0.79208953900000	    1.07817822300000	   -0.62125689700000	    0.67416864000000	    1.42354711900000	   -0.60370343000000	    0.38817501800000	    0.42148602300000	   -0.79617645300000	    0.35846490500000	    1.43621960400000	   -0.59090924100000	    0.64800384500000	    0.35443484500000	   -0.47466207900000	    0.40014044200000	    0.54002136200000	   -0.84988531500000	    0.58518072500000	    0.03839489400000	   -0.42845770300000	    0.81346063200000	    0.90472088600000	   -0.80900854500000	    0.40686209100000	    0.27073642000000	   -0.75001989700000	    0.37763607800000	    0.67360137900000	   -0.81030200200000	    0.26289013700000	    1.10650610400000	   -0.50196218900000	    0.23641780100000	    0.85944116200000	   -0.57752758800000	    0.36606839000000	    0.78678259300000	   -0.75574902300000	    0.54567169200000	    0.09220433000000	   -0.52414239500000	    0.32588772600000	    0.67700103800000	   -0.70256524700000	    0.34245687900000	    0.37697796600000	   -0.69655065900000	    0.60322210700000	    0.38124603300000	   -0.56736889600000	    0.50635961900000	    1.37138049300000	   -0.68827758800000	    0.38194958500000	    0.07214663700000	   -0.66089831500000	    0.62344982900000	    0.70885314900000	   -0.67217981000000	    0.66877124000000	    0.66297082500000	   -0.57600390600000	    0.36707666000000	    0.95971618700000	   -0.64359484900000	    0.57234948700000	    0.21701265000000	   -0.50851059000000	    0.59690771500000	    0.48499642900000	   -0.62059155300000	    0.60547540300000	    0.59735278300000	   -0.64924310300000	    0.62386773700000	    0.97677966300000	   -0.65294470200000	    0.50423068200000	    0.99322021500000	   -0.47249005100000
43	   0.420	    0.41133416700000	    0.11819558700000	   -0.79181774900000	    0.51831152300000	    1.46562170400000	   -0.53550787400000	    0.39726062000000	    0.06756658200000	   -0.90446801800000	    0.55096380600000	    0.03409647400000	   -0.62763763400000	    0.52197833300000	    0.05823645800000	   -0.33272628800000	    0.44681283600000	    0.07649777200000	   -0.61681768800000	    0.79351373300000	    1.07799902300000	   -0.62459021000000	    0.67410491900000	    1.42271521000000	   -0.60388470500000	    0.38756808500000	    0.42231424000000	   -0.80165325900000	    0.35839328000000	    1.43514147900000	   -0.59080999800000	    0.64790570100000	    0.35542312600000	   -0.46290969800000	    0.40032861300000	    0.54162182600000	   -0.84848284900000	    0.58515307600000	    0.03907604200000	   -0.41464880400000	    0.81374877900000	    0.90858758500000	   -0.81620898400000	    0.40574765000000	    0.26857479900000	   -0.76692749000000	    0.37786276200000	    0.67396484400000	   -0.80993920900000	    0.26380560300000	    1.10630810500000	   -0.49869128400000	    0.23669630400000	    0.85770727500000	   -0.56836816400000	    0.36565399200000	    0.78701886000000	   -0.75468298300000	    0.54582843000000	    0.09225729400000	   -0.51066259800000	    0.32538729900000	    0.67703631600000	   -0.70235644500000	    0.34148062100000	    0.37114022800000	   -0.70576391600000	    0.60342511000000	    0.38126214600000	   -0.55606353800000	    0.50629165600000	    1.37027685500000	   -0.68823431400000	    0.38019586200000	    0.06398511500000	   -0.69279150400000	    0.62358264200000	    0.70689502000000	   -0.66678521700000	    0.66821228000000	    0.66260553000000	   -0.56935308800000	    0.36676480100000	    0.95889202900000	   -0.64291949500000	    0.57253930700000	    0.21737194800000	   -0.49597451800000	    0.59693902600000	    0.48385601800000	   -0.61012390100000	    0.60565527300000	    0.59614428700000	   -0.64202380400000	    0.62376770000000	    0.97553515600000	   -0.65132745400000	    0.50360086100000	    0.99274279800000	   -0.47105600000000
44	   0.430	    0.40969009400000	    0.11795427700000	   -0.82005896000000	    0.51826116900000	    1.46459887700000	   -0.53570306400000	    0.39566735800000	    0.07488143200000	   -0.93589776600000	    0.55093096900000	    0.03351698700000	   -0.61374798600000	    0.52194476300000	    0.05980267300000	   -0.31910949700000	    0.44492172200000	    0.06455281800000	   -0.64816296400000	    0.79490747100000	    1.07762988300000	   -0.62796868900000	    0.67407592800000	    1.42163867200000	   -0.60408783000000	    0.38681005900000	    0.42276138300000	   -0.80597613500000	    0.35826757800000	    1.43393127400000	   -0.59084350600000	    0.64770056200000	    0.35648996000000	   -0.45113061500000	    0.40046640000000	    0.54212542700000	   -0.84594006300000	    0.58505035400000	    0.03989378700000	   -0.40085894800000	    0.81397674600000	    0.91216589400000	   -0.82304290800000	    0.40444827300000	    0.26685000600000	   -0.78328930700000	    0.37775454700000	    0.67343219000000	   -0.80905780000000	    0.26444601400000	    1.10600402800000	   -0.49586065700000	    0.23679483000000	    0.85608245800000	   -0.55966107200000	    0.36531716900000	    0.78636627200000	   -0.75338281300000	    0.54609271200000	    0.09227060700000	   -0.49724624600000	    0.32473257400000	    0.67656103500000	   -0.70160461400000	    0.34026495400000	    0.36527948000000	   -0.71435583500000	    0.60371594200000	    0.38131378200000	   -0.54474371300000	    0.50620544400000	    1.36896301300000	   -0.68826977500000	    0.37830801400000	    0.05727569200000	   -0.72489630100000	    0.62407959000000	    0.70452026400000	   -0.66125146500000	    0.66806390400000	    0.66212994400000	   -0.56292388900000	    0.36639321900000	    0.95789721700000	   -0.64238946500000	    0.57276318400000	    0.21779498300000	   -0.48345031700000	    0.59700946000000	    0.48269998200000	   -0.59962725800000	    0.60597369400000	    0.59495782500000	   -0.63509161400000	    0.62357806400000	    0.97405835000000	   -0.64970739700000	    0.50246151700000	    0.99199261500000	   -0.46955651900000
45	   0.440	    0.40792718500000	    0.11919159700000	   -0.84777819800000	    0.51813317900000	    1.46339721700000	   -0.53595318600000	    0.39375109900000	    0.08412058300000	   -0.96634521500000	    0.55092858900000	    0.03306363700000	   -0.59975549300000	    0.52192822300000	    0.06145288500000	   -0.30546322600000	    0.44277551300000	    0.05439133500000	   -0.67990350300000	    0.79610827600000	    1.07707141100000	   -0.63115429700000	    0.67392883300000	    1.42038256800000	   -0.60428289800000	    0.38579074100000	    0.42284933500000	   -0.80937658700000	    0.35812200900000	    1.43252490200000	   -0.59102661100000	    0.64754766800000	    0.35770581100000	   -0.43936669900000	    0.40055172700000	    0.54149664300000	   -0.84230401600000	    0.58511114500000	    0.04077970500000	   -0.38696713300000	    0.81417724600000	    0.91544628900000	   -0.82952221700000	    0.40287527500000	    0.26581982400000	   -0.79901934800000	    0.37748175000000	    0.67176348900000	   -0.80764740000000	    0.26493646200000	    1.10548400900000	   -0.49341760300000	    0.23675033600000	    0.85438171400000	   -0.55140863000000	    0.36500726300000	    0.78480908200000	   -0.75194665500000	    0.54621649200000	    0.09235810100000	   -0.48375708000000	    0.32407937600000	    0.67557025100000	   -0.70023870800000	    0.33923260500000	    0.35923620600000	   -0.72212384000000	    0.60398455800000	    0.38151742600000	   -0.53347485400000	    0.50613992300000	    1.36745752000000	   -0.68836120600000	    0.37642468300000	    0.05234559600000	   -0.75697064200000	    0.62388470500000	    0.70270843500000	   -0.65663635300000	    0.66802349900000	    0.66179180900000	   -0.55667675800000	    0.36587371800000	    0.95687939500000	   -0.64208032200000	    0.57318408200000	    0.21831497200000	   -0.47096420300000	    0.59686657700000	    0.48163742100000	   -0.58919146700000	    0.60531530800000	    0.59308764600000	   -0.62717932100000	    0.62330578600000	    0.97253759800000	   -0.64821997100000	    0.50218454000000	    0.99052887000000	   -0.46865734900000
